# xmcd
#
# Track frame offsets:
#   150
#   13915
#   27329
#   39243
#   53230
#   63392
#   73257
#   85898
#   96283
#   109107
#   121810
#
# Disc length: 1781 seconds
#
# Revision: 0
# Processed by: cddbd v1.5.1PL2 Copyright (c) Steve Scherf et al.
# Submitted via: GXTranscoder 2.0.1939
#
DISCID=9206f30b
DTITLE=Tigers Of Doom - Tigers Of Doom
DYEAR=1900
DGENRE=Blues
TTITLE0=Cheat on me
TTITLE1=Do the Dave
TTITLE2=Time out
TTITLE3=Do you mind at all?
TTITLE4=So cruel
TTITLE5=Don't push me around
TTITLE6=Let go
TTITLE7=Without Love
TTITLE8=Don't believe you no more
TTITLE9=It's cold outside
TTITLE10=Tigers of Doom
EXTD=
EXTT0=
EXTT1=
EXTT2=
EXTT3=
EXTT4=
EXTT5=
EXTT6=
EXTT7=
EXTT8=
EXTT9=
EXTT10=
PLAYORDER=
